<svg id="Layer_1" data-name="Layer 1" xmlns="http://www.w3.org/2000/svg" viewBox="0 0 831 202"><defs><style>.cls-1{fill:#2faf7e;stroke:#2faf7e;stroke-miterlimit:10;stroke-width:8px;}.cls-2,.cls-3{font-size:150px;font-family:Itim-Regular, Itim;}.cls-2{fill:#fff;}.cls-3{fill:#343434;}</style></defs><title>gem-thrift-logo-light</title><path class="cls-1" d="M112.5,127a1,1,0,0,1-1-1A45.55,45.55,0,0,0,66,80.5a1,1,0,0,1,0-2A45.55,45.55,0,0,0,111.5,33a1,1,0,0,1,2,0A45.55,45.55,0,0,0,159,78.5a1,1,0,0,1,0,2A45.55,45.55,0,0,0,113.5,126,1,1,0,0,1,112.5,127Z"/><path class="cls-1" d="M65.21,159a.48.48,0,0,1-.47-.48,21.58,21.58,0,0,0-21.27-21.83.48.48,0,1,1,0-.95,21.58,21.58,0,0,0,21.83-21.27.48.48,0,0,1,1,0,21.58,21.58,0,0,0,21.27,21.83.48.48,0,0,1,0,.95,21.58,21.58,0,0,0-21.83,21.27A.48.48,0,0,1,65.21,159Z"/><path class="cls-1" d="M38.5,65a.56.56,0,0,1-.56-.56A25.41,25.41,0,0,0,12.56,39.06a.56.56,0,1,1,0-1.12A25.41,25.41,0,0,0,37.94,12.56a.56.56,0,0,1,1.12,0A25.41,25.41,0,0,0,64.44,37.94a.56.56,0,0,1,0,1.12A25.41,25.41,0,0,0,39.06,64.44.56.56,0,0,1,38.5,65Z"/><text class="cls-2" transform="translate(125.84 192.84)">Gem Thrift</text><text class="cls-3" transform="translate(125.84 -34.16)">Gem Thrift</text></svg>